<?xml version="1.0" encoding="UTF-8" standalone="no"?>
<!-- Generator: Adobe Illustrator 25.4.1, SVG Export Plug-In . SVG Version: 6.00 Build 0)  -->

<svg
   version="1.0"
   id="svg15246"
   x="0px"
   y="0px"
   width="35px"
   height="35px"
   viewBox="0 0 35 35"
   enable-background="new 0 0 35 35"
   xml:space="preserve"
   sodipodi:docname="nkk.svg"
   inkscape:version="1.4.2 (f4327f4, 2025-05-13)"
   xmlns:inkscape="http://www.inkscape.org/namespaces/inkscape"
   xmlns:sodipodi="http://sodipodi.sourceforge.net/DTD/sodipodi-0.dtd"
   xmlns="http://www.w3.org/2000/svg"
   xmlns:svg="http://www.w3.org/2000/svg"><defs
   id="defs1" /><sodipodi:namedview
   id="namedview1"
   pagecolor="#ffffff"
   bordercolor="#666666"
   borderopacity="1.0"
   inkscape:showpageshadow="2"
   inkscape:pageopacity="0.0"
   inkscape:pagecheckerboard="0"
   inkscape:deskcolor="#d1d1d1"
   inkscape:zoom="53.285714"
   inkscape:cx="17.5"
   inkscape:cy="17.5"
   inkscape:window-width="3840"
   inkscape:window-height="2126"
   inkscape:window-x="3829"
   inkscape:window-y="-11"
   inkscape:window-maximized="1"
   inkscape:current-layer="svg15246" />
<path
   fill="#aaaaaa"
   d="m 8.2929687,0 -6.5,11.257812 L 0,14.361328 0.03125,14.414062 C 0.02052814,14.416292 0.00908366,14.420536 0,14.425781 l 8.2929687,14.361328 c 0.021662,-0.01251 0.037265,-0.03356 0.048828,-0.0625 H 24.876953 l 0.01172,-0.02148 c 0.01144,0.03976 0.0321,0.06869 0.05859,0.08398 l 8.291016,-14.361328 c -0.0269,-0.01553 -0.06059,-0.01832 -0.101563,-0.0078 l 0.02344,-0.04297 h 0.002 c 0.02998,0.004 0.05498,-0.0014 0.07617,-0.01367 L 24.947266,0 c -0.0177,0.010219 -0.03203,0.025642 -0.04297,0.046875 L 24.876956,0 Z"
   id="path1" />
</svg>
